<?xml version="1.0" encoding="UTF-8"?>
<svg width="363" height="363" version="1.1" viewBox="0 0 96.044 96.044" xmlns="http://www.w3.org/2000/svg" xmlns:cc="http://creativecommons.org/ns#" xmlns:dc="http://purl.org/dc/elements/1.1/" xmlns:rdf="http://www.w3.org/1999/02/22-rdf-syntax-ns#" xmlns:xlink="http://www.w3.org/1999/xlink">
 <title>Unicodify icon</title>
 <defs>
  <clipPath id="clipPath2271">
   <path d="m-85.236-116.88-16.887-0.31838 0.444-23.549 16.887 0.31839z" fill="#7d004f" style="paint-order:fill markers stroke"/>
  </clipPath>
  <clipPath id="clipPath2340">
   <rect x="55.562" y="29.104" width="34.396" height="47.625" fill="#7d004f" style="paint-order:fill markers stroke"/>
  </clipPath>
 </defs>
 <metadata>
  <rdf:RDF>
   <cc:Work rdf:about="">
    <dc:format>image/svg+xml</dc:format>
    <dc:type rdf:resource="http://purl.org/dc/dcmitype/StillImage"/>
    <dc:title>Unicodify icon</dc:title>
    <cc:license rdf:resource="http://creativecommons.org/licenses/by/4.0/"/>
    <dc:creator>
     <cc:Agent>
      <dc:title>rugk</dc:title>
     </cc:Agent>
    </dc:creator>
   </cc:Work>
   <cc:License rdf:about="http://creativecommons.org/licenses/by/4.0/">
    <cc:permits rdf:resource="http://creativecommons.org/ns#Reproduction"/>
    <cc:permits rdf:resource="http://creativecommons.org/ns#Distribution"/>
    <cc:requires rdf:resource="http://creativecommons.org/ns#Notice"/>
    <cc:requires rdf:resource="http://creativecommons.org/ns#Attribution"/>
    <cc:permits rdf:resource="http://creativecommons.org/ns#DerivativeWorks"/>
   </cc:License>
  </rdf:RDF>
 </metadata>
 <g transform="translate(-37.807 -84.672)" display="none">
  <g>
   <g transform="translate(.64817 -1.8567)" aria-label="υ">
    <path d="m121.71 126.71c-1.2868-7.4636-5.5333-12.611-10.552-12.611-1.9302 0-3.217 0.51473-4.2465 1.5442l-12.907 13.022 2.3422 2.9927c1.0294-0.7721 8.892-8.68 10.308-8.68 3.7318 0 6.3054 2.9597 7.2062 8.107 3.3457 19.174-6.048 40.02-18.015 40.02-6.5628 0-11.71-5.276-13.126-13.769-0.38605-1.9302-0.51473-3.4744-0.25736-6.8201l1.2868-26.895c0-2.0589 0-3.8605-0.25736-5.5333-0.51473-2.445-1.8015-3.9891-3.7318-3.9891-2.831 0-7.5851 2.2652-16.214 9.5225l-8.3081 6.9876 0.69425 3.9482 9.4154-8.4908c3.181-2.8686 4.7612-2.9597 6.0481-2.9597s2.445 1.1581 2.7023 2.5736c0.12868 0.64341 0.12868 1.6729 0.12868 2.3163l-1.1581 29.339c0 1.0295 0.25736 2.1876 0.38605 3.217 1.8015 10.037 9.1364 16.986 17.887 16.986 5.9194 0 11.067-2.5736 16.471-8.3643 4.8899-5.276 9.3938-13.383 11.967-21.49 2.1876-6.8201 2.9597-15.571 1.9302-20.975z" stroke-width=".67021"/>
   </g>
   <path d="m629.6-203.49c-1.094-6.3451-4.7041-10.721-8.9706-10.721-1.641 0-2.735 0.43759-3.6101 1.3128l-4.8135 5.1417 1.641 2.0786c0.87518-0.65639 1.7504-0.98458 2.9537-0.98458 3.1726 0 5.3605 2.5162 6.1263 6.8921 2.8444 16.3-5.1417 34.023-15.316 34.023-5.5793 0-9.9552-4.4853-11.159-11.706-0.3282-1.641-0.4376-2.9538-0.2188-5.7981l1.094-22.864c0-1.7504-3.1725-6.6733-3.3913-8.0954-0.43759-2.0786 1.641 0 0 0-2.4068 0-6.2357 2.188-13.784 8.0954l-2.8444 2.188 1.2034 2.188 3.1725-2.2974c3.0632-1.9692 4.0477-2.5162 5.1417-2.5162s2.0786 0.98458 2.2974 2.188c0.1094 0.54699 0.1094 1.4222 0.1094 1.9692l-0.98458 24.943c0 0.87518 0.21879 1.8598 0.32819 2.735 1.5316 8.533 7.7673 14.441 15.206 14.441 5.0323 0 9.4082-2.188 14.003-7.1109 4.1571-4.4853 7.986-11.377 10.174-18.269 1.8598-5.7981 2.5162-13.237 1.641-17.832z"/>
   <text x="-98.851761" y="91.244781" fill="#000000" font-family="'TeX Gyre Pagella Math'" font-size="109.4px" letter-spacing="0px" stroke-width=".56978" word-spacing="0px" style="line-height:1.25" xml:space="preserve"><tspan x="-98.851761" y="91.244781" font-family="'TeX Gyre Pagella Math'" font-size="109.4px" stroke-width=".56978">u</tspan></text>
   <path d="m-256.42-98.032v-3.2819l-4.4853-0.32819c-3.7195-0.2188-4.0477-0.87518-4.0477-7.8767v-39.711l-0.98458-0.43759c-5.5793 2.2974-11.268 3.8289-17.066 4.4853v3.0631h4.0477c4.3759 0 4.8135 0.76579 4.8135 7.986v17.832c0 2.4068-1.5316 5.4699-4.0477 7.986-3.0631 3.0632-6.5639 4.5947-10.83 4.5947-3.8289 0-6.8921-1.2034-8.6424-3.2819-1.5316-1.7504-2.2974-5.1417-2.2974-9.9552v-32.272l-0.98459-0.43759c-5.5793 2.2974-11.268 3.8289-17.066 4.4853v3.0631h4.0477c4.3759 0 4.8135 0.76579 4.8135 7.986v18.379c0 7.6579 0.65639 11.049 2.6256 13.784 2.4068 3.2819 6.5639 4.9229 12.8 4.9229 4.9229 0 9.2988-1.5316 12.253-4.2665l7.3297-6.7827c0 3.1725-0.1094 4.9229-0.4376 10.065 3.0632-0.21879 6.0169-0.32819 9.08-0.32819 3.0631 0 6.0169 0.1094 9.08 0.32819z"/>
  </g>
  <ellipse cx="33.731" cy="223.06" rx="18.851" ry="18.454" fill="#ff0" stroke="#f0f" stroke-opacity=".2481" stroke-width=".79375" style="paint-order:fill markers stroke"/>
  <ellipse cx="164.46" cy="226.81" rx="25.139" ry="18.581" fill="#f00" stroke="#008000" stroke-opacity=".2481" stroke-width=".79375" style="paint-order:fill markers stroke"/>
  <g>
   <path d="m399.59-111.9c-0.17-0.988-0.401-1.929-0.687-2.812-0.433-1.342-0.991-2.553-1.649-3.601-1.691-2.692-4.041-4.308-6.634-4.308-0.342 0-0.659 0.019-0.956 0.057-1.131 0.144-1.961 0.563-2.654 1.256l-4.814 5.142 1.641 2.078c0.875-0.656 1.75-0.984 2.954-0.984 3.172 0 5.36 2.516 6.126 6.892 0.526 3.015 0.682 6.079 0.521 9.071-0.017 0.317-0.037 0.634-0.061 0.949-0.423 5.545-1.923 10.792-4.146 14.959-0.436 0.817-0.899 1.592-1.388 2.32-0.693 1.032-1.436 1.968-2.223 2.793-2.356 2.469-5.097 3.93-8.019 3.93-0.254 0-0.506-9e-3 -0.756-0.028-4.922-0.365-8.795-4.303-10.181-10.535-0.082-0.373-0.156-0.754-0.221-1.142-0.328-1.641-0.438-2.954-0.219-5.798 0 0 0.019-0.403 0.053-1.101 0.095-1.985 0.304-6.361 0.51-10.671 0.152-3.161 0.301-6.287 0.403-8.411 0.078-1.639 0.128-2.681 0.128-2.681 0-1.208-1.509-3.924-2.517-5.96-0.454-0.916-0.806-1.695-0.874-2.136-0.438-2.079 1.641 0 0 0-2.407 0-6.236 2.188-13.784 8.096l-2.845 2.187 1.204 2.188s0.457-0.331 1.025-0.742c0.246-0.178 0.512-0.371 0.771-0.559 0.717-0.519 1.376-0.996 1.376-0.996 3.063-1.969 4.048-2.516 5.142-2.516s2.078 0.984 2.297 2.188c0.11 0.547 0.11 1.422 0.11 1.969 0 0-0.042 1.057-0.108 2.736-0.031 0.781-0.067 1.696-0.107 2.702-0.044 1.101-0.091 2.311-0.141 3.572-0.13 3.303-0.275 6.958-0.392 9.933-0.137 3.46-0.237 6-0.237 6 0 0.875 0.219 1.86 0.328 2.735 0.465 2.59 1.364 4.939 2.598 6.954 2.322 3.791 5.834 6.401 9.881 7.216 0.886 0.178 1.797 0.27 2.728 0.27 3.274 0 6.27-0.926 9.23-2.929 1.589-1.076 3.167-2.462 4.772-4.182 1.144-1.233 2.263-2.649 3.329-4.197 1.595-2.315 3.073-4.925 4.343-7.662 0.969-2.087 1.816-4.249 2.502-6.41 0.201-0.626 0.388-1.272 0.561-1.931 0.665-2.542 1.115-5.285 1.326-7.904 0.24-2.987 0.17-5.813-0.246-7.997z"/>
   <path d="m345.62-108.48c-0.156-0.906-0.368-2.041-0.63-2.851-0.397-1.23-1.282-2.367-1.886-3.328-1.842-2.485-4.037-4.016-6.418-4.515-0.313-0.029-0.604-0.041-0.876-0.038-1.037 0.132-1.798 0.408-2.433 0.868 0-0.169-4.413 4.311-4.413 4.049 0-0.081 1.505 1.741 1.505 1.655 0.802-0.7 1.604-1.101 2.707-1.202 2.908-0.327 4.914 1.645 5.616 5.365 0.482 2.273 0.625 4.713 0.478 7.456-0.016 0.291-0.117 0.544-0.139 0.834-0.852 5.273-2.701 10.211-5.222 14.085-0.399 0.749-0.824 1.715-1.273 2.382-0.635 0.946-0.979 1.805-1.7 2.56-1.81 2.264-4.275 3.662-6.949 4.197-0.234 0.023-0.465 0.039-0.694 0.046-4.511-0.335-8.061-2.458-9.332-8.171-0.076-0.307-0.147-0.62-0.214-0.938-0.332-1.351-0.522-2.382-0.456-4.835-0.022 0.026-0.028-0.317-0.023-0.933-0.168-1.564-0.268-5.447-0.434-9.399-0.181-2.897-0.299-5.863-0.351-7.983 0.023-1.558 0.03-2.588 0-2.681-0.049-1.26-1.458-3.953-2.382-6.07-0.416-0.839-0.739-1.635-0.801-2.176-0.401-1.976 1.504-0.155 0-0.25-2.206-0.422-5.716 0.958-12.635 5.894 0-0.125-2.608 1.766-2.608 1.667 0-0.095 1.103 1.83 1.103 1.77 0-0.076 0.42-0.424 0.941-0.8 0.225-0.164 0.387-0.377 0.624-0.549 0.608-0.455 1.162-0.873 1.112-0.854 2.636-1.74 3.366-2.184 4.194-2.137 0.899 0.028 1.696 0.956 1.792 2.081 0.039 0.514-0.022 1.327-0.083 1.839-0.085 0.014-0.209 0.995-0.355 2.544-0.029 0.716-0.062 1.81-0.098 2.732-0.04 1.009 0.254 2.118 0.208 3.274 0.245 3.028 0.149 6.442 0.042 9.771-0.125 3.171-0.217 5.76-0.217 6.067 0 0.887 0.2 1.877 0.3 2.767 0.427 2.736 1.25 5.232 2.382 7.079 2.129 4.114 5.402 6.788 9.276 7.763 0.863 0.233 1.76 0.379 2.683 0.431 3.207 0.152 6.245-0.621 9.345-2.458 1.668-0.986 3.315-2.29 4.964-3.931 1.215-1.191 2.387-2.576 3.484-4.105 1.461-2.122 3.427-5.079 4.591-7.589 0.888-1.692 1.659-3.535 2.27-5.226 0.18-0.518 0.348-1.047 0.501-1.581 0.865-2.348 1.524-4.871 1.972-7.272 0.476-2.739 0.658-5.32 0.532-7.304z"/>
   <path d="m292.42-105.06c-0.142-0.824-0.335-2.155-0.573-2.891-0.361-1.118-1.574-2.182-2.122-3.055-1.995-2.278-4.034-3.724-6.202-4.722-0.285-0.057-0.55-0.102-0.797-0.134-0.943 0.12-1.635 0.255-2.212 0.482 0-0.339-4.011 3.479-4.011 2.955 0-0.162 1.367 1.403 1.367 1.232 0.729-0.743 1.459-1.217 2.462-1.42 2.643-0.653 4.467 0.775 5.105 3.838 0.438 1.531 0.568 3.348 0.434 5.841-0.014 0.264-0.195 0.455-0.215 0.718-1.282 5.003-3.48 9.631-6.299 13.213-0.363 0.68-0.75 1.837-1.157 2.444-0.578 0.86-0.523 1.64-1.178 2.327-1.264 2.058-3.452 3.393-5.88 4.464-0.212 0.045-0.422 0.085-0.63 0.119-4.102-0.304-7.329-0.614-8.484-5.808-0.069-0.24-0.138-0.484-0.207-0.733-0.335-1.061-0.607-1.811-0.693-3.871-0.045 0.052-0.076-0.233-0.098-0.765-0.431-1.144-0.84-4.535-1.379-8.127-0.513-2.634-0.898-5.439-1.105-7.555-0.031-1.477-0.068-2.495-0.128-2.681-0.099-1.313-1.406-3.984-2.246-6.18-0.378-0.763-0.672-1.577-0.729-2.217-0.364-1.873 1.368-0.31 0-0.501-2.005-0.843-5.196-0.27-11.486 3.694 0-0.25-2.371 1.344-2.371 1.146 0-0.191 1.003 1.472 1.003 1.352 0-0.153 0.382-0.516 0.855-0.859 0.205-0.148 0.263-0.382 0.478-0.538 0.499-0.392 0.948-0.75 0.849-0.712 2.209-1.51 2.683-1.853 3.246-1.758 0.703 0.057 1.313 0.928 1.285 1.974-0.031 0.481-0.153 1.233-0.275 1.709-0.17 0.029-0.376 0.933-0.602 2.352-0.026 0.651-0.056 1.924-0.089 2.762-0.036 0.918 0.599 1.926 0.557 2.976 0.621 2.753 0.574 5.927 0.476 9.609-0.114 2.883-0.198 5.521-0.198 6.134 0 0.898 0.183 1.895 0.274 2.799 0.387 2.882 1.136 5.525 2.164 7.204 1.936 4.436 4.972 7.176 8.672 8.311 0.841 0.288 1.722 0.487 2.638 0.591 3.141 0.303 6.22-0.317 9.46-1.986 1.748-0.897 3.463-2.12 5.156-3.681 1.285-1.149 2.511-2.503 3.638-4.013 1.329-1.929 3.782-5.234 4.841-7.515 0.807-1.297 1.5-2.822 2.036-4.043 0.16-0.409 0.308-0.822 0.443-1.231 1.064-2.154 1.932-4.458 2.618-6.641 0.711-2.489 1.145-4.826 1.309-6.609z"/>
   <path d="m239.94-101.65c-0.128-0.741-0.302-2.267-0.516-2.93-0.325-1.006-1.865-1.996-2.358-2.782-2.147-2.071-4.031-3.433-5.987-4.929-0.256-0.086-0.495-0.162-0.717-0.229-0.848 0.108-1.471 0.101-1.991 0.094 0-0.508-3.61 2.649-3.61 1.862 0-0.243 1.231 1.065 1.231 0.809 0.656-0.786 1.312-1.334 2.215-1.637 2.379-0.98 4.02-0.097 4.595 2.31 0.394 0.789 0.511 1.982 0.391 4.226-0.013 0.238-0.275 0.366-0.293 0.602-1.712 4.733-4.259 9.051-7.375 12.34-0.327 0.613-0.675 1.96-1.042 2.506-0.519 0.774-0.065 1.476-0.655 2.095-0.718 1.852-2.63 3.124-4.811 4.73-0.191 0.069-0.38 0.133-0.567 0.193-3.691-0.274-6.596 1.231-7.635-3.444-0.063-0.174-0.13-0.35-0.201-0.529-0.337-0.771-0.69-1.239-0.929-2.907-0.067 0.077-0.124-0.148-0.173-0.598-0.695-0.723-1.413-3.621-2.325-6.854-0.844-2.371-1.497-5.016-1.859-7.128-0.085-1.395-0.165-2.401-0.255-2.68-0.148-1.366-1.354-4.014-2.111-6.29-0.34-0.688-0.604-1.519-0.655-2.257-0.328-1.771 1.231-0.466 0-0.752-1.805-1.265-4.677-1.5-10.338 1.492 0-0.374-2.1332 0.922-2.1332 0.625 0-0.285 0.9025 1.114 0.9025 0.934 0-0.228 0.3434-0.608 0.7692-0.916 0.1844-0.133 0.138-0.387 0.3321-0.528 0.3891-0.328 0.7342-0.627 0.5849-0.57 1.7818-1.281 2.0008-1.521 2.2988-1.379 0.507 0.085 0.931 0.899 0.779 1.867-0.101 0.448-0.284 1.138-0.468 1.579-0.255 0.043-0.542 0.872-0.849 2.16-0.023 0.585-0.05 2.038-0.08 2.792-0.032 0.826 0.944 1.733 0.906 2.679 0.996 2.477 0.998 5.41 0.91 9.447-0.103 2.594-0.178 5.281-0.178 6.199 0 0.911 0.164 1.914 0.246 2.832 0.349 3.027 1.023 5.818 1.948 7.329 1.742 4.759 4.54 7.564 8.068 8.858 0.817 0.344 1.683 0.595 2.593 0.751 3.074 0.456 6.194-0.011 9.575-1.514 1.827-0.806 3.61-1.948 5.346-3.431 1.357-1.106 2.636-2.428 3.793-3.92 1.196-1.736 4.137-5.389 5.09-7.442 0.726-0.902 1.343-2.108 1.803-2.859 0.14-0.3 0.268-0.596 0.384-0.88 1.265-1.962 2.341-4.046 3.265-6.01 0.946-2.241 1.632-4.333 2.086-5.916z"/>
   <path d="m188.2-98.232c-0.114-0.659-0.268-2.38-0.459-2.969-0.289-0.894-2.156-1.811-2.594-2.509-2.3-1.864-4.028-3.141-5.771-5.137-0.228-0.114-0.441-0.222-0.639-0.323-0.753 0.096-1.307-0.053-1.769-0.294 0-0.677-3.209 1.818-3.209 0.769 0-0.323 1.094 0.728 1.094 0.386 0.583-0.83 1.167-1.45 1.969-1.855 2.115-1.306 3.574-0.967 4.084 0.784 0.351 0.046 0.455 0.615 0.348 2.609-0.011 0.212-0.353 0.277-0.369 0.487-2.142 4.462-5.038 8.471-8.453 11.468-0.29 0.544-0.599 2.082-0.925 2.568-0.462 0.688 0.391 1.312-0.133 1.861-0.172 1.647-1.808 2.856-3.742 4.997-0.169 0.092-0.337 0.181-0.504 0.267-3.281-0.243-5.863 3.075-6.787-1.08-0.055-0.108-0.12-0.216-0.193-0.325-0.34-0.48-0.775-0.668-1.166-1.944-0.09 0.104-0.171-0.063-0.248-0.429-0.9581-0.302-1.9854-2.709-3.2701-5.583-1.1755-2.107-2.0968-4.592-2.6125-6.7-0.1405-1.314-0.2636-2.307-0.3836-2.679-0.1978-1.419-1.3027-4.045-1.975-6.401-0.3024-0.611-0.5373-1.459-0.5826-2.297-0.2917-1.668 1.094-0.622 0-1.003-1.6045-1.686-4.1571-2.728-9.1894-0.708 0-0.499-1.8962 0.5-1.8962 0.104 0-0.381 0.8022 0.756 0.8022 0.516 0-0.305 0.3052-0.7 0.6838-0.974 0.1638-0.119 0.0132-0.393 0.1857-0.518 0.2798-0.265 0.5203-0.504 0.3212-0.428 1.3547-1.051 1.3188-1.189 1.3509-1 0.3114 0.114 0.5482 0.871 0.2726 1.76-0.1708 0.414-0.4152 1.044-0.6601 1.449-0.3401 0.057-0.7091 0.81-1.0956 1.968-0.0206 0.52-0.0447 2.151-0.0711 2.822-0.029 0.734 1.2884 1.54 1.2552 2.381 1.3717 2.202 1.4214 4.894 1.3431 9.285-0.091 2.306-0.1579 5.042-0.1579 6.266 0 0.923 0.1459 1.932 0.2188 2.864 0.31 3.173 0.909 6.112 1.7318 7.455 1.5484 5.08 4.1081 7.95 7.4626 9.405 0.7952 0.398 1.6455 0.703 2.5481 0.911 3.0075 0.607 6.1691 0.293 9.6901-1.042 1.907-0.717 3.758-1.778 5.538-3.181 1.427-1.064 2.76-2.355 3.947-3.828 1.064-1.543 4.492-5.543 5.339-7.368 0.646-0.507 1.185-1.395 1.57-1.676 0.12-0.191 0.229-0.371 0.326-0.53 1.464-1.768 2.749-3.633 3.91-5.379 1.182-1.991 2.12-3.839 2.864-5.222z"/>
   <path d="m137.18-94.816c-0.099-0.576-0.234-2.492-0.401-3.008-0.252-0.782-2.447-1.625-2.831-2.237-2.452-1.656-4.024-2.848-5.555-5.343-0.2-0.143-0.385-0.282-0.559-0.418-0.659 0.084-1.144-0.207-1.548-0.681 0-0.847-2.8078 0.987-2.8078-0.325 0-0.404 0.9568 0.39 0.9568-0.037 0.511-0.873 1.022-1.567 1.723-2.072 1.851-1.633 3.127-1.839 3.574-0.744 0.307-0.696 0.398-0.751 0.304 0.994-0.01 0.185-0.432 0.188-0.446 0.372-2.571 4.191-5.8165 7.89-9.529 10.594-0.2543 0.477-0.5248 2.205-0.8099 2.63-0.4042 0.602 0.8486 1.148 0.3899 1.629 0.3739 1.441-0.9855 2.586-2.673 5.263-0.1479 0.115-0.2947 0.228-0.4402 0.341-2.871-0.213-5.1302 4.92-5.9387 1.284-0.0483-0.043-0.1107-0.082-0.1859-0.121-0.3436-0.19-0.8597-0.096-1.4033-0.98-0.1121 0.13-0.2191 0.022-0.3235-0.262-1.2209 0.119-2.5574-1.795-4.2148-4.31-1.5072-1.844-2.6963-4.168-3.3663-6.273-0.1952-1.232-0.3616-2.213-0.5115-2.678-0.2473-1.472-1.2512-4.075-1.8394-6.511-0.2647-0.535-0.4702-1.401-0.5098-2.338-0.2552-1.565 0.9573-0.777 0-1.253-1.4039-2.109-3.6375-3.958-8.0407-2.91 0-0.624-1.6592 0.078-1.6592-0.417 0-0.476 0.7019 0.399 0.7019 0.098 0-0.38 0.2671-0.791 0.5983-1.031 0.1434-0.104-0.1115-0.399 0.0395-0.508 0.1705-0.201 0.3064-0.381 0.0575-0.286 0.9276-0.822 0.6365-0.858 0.4031-0.621 0.1158 0.142 0.1656 0.842-0.2335 1.653-0.2409 0.381-0.5464 0.949-0.8525 1.319-0.4251 0.071-0.876 0.748-1.3426 1.776-0.0179 0.455-0.039 2.265-0.0622 2.852-0.0253 0.642 1.6334 1.348 1.6044 2.083 1.7472 1.927 1.8454 4.379 1.7768 9.123-0.0796 2.018-0.1381 4.802-0.1381 6.333 0 0.934 0.1276 1.95 0.1914 2.897 0.2713 3.318 0.7954 6.404 1.5153 7.579 1.3549 5.403 3.6767 8.338 6.858 9.953 0.7726 0.453 1.6076 0.811 2.5033 1.071 2.9407 0.758 6.1434 0.598 9.8051-0.571 1.9862-0.627 3.9054-1.606 5.7292-2.931 1.4983-1.021 2.8847-2.28 4.1021-3.735 0.9302-1.35 4.8463-5.698 5.5873-7.295 0.565-0.112 1.028-0.682 1.337-0.492 0.1-0.082 0.189-0.146 0.267-0.18 1.664-1.574 3.158-3.219 4.557-4.747 1.417-1.743 2.607-3.346 3.64-4.529z"/>
   <path d="m86.204-91.399c-0.0852-0.494-0.2009-2.606-0.3437-3.047-0.2167-0.671-2.7384-1.441-3.0673-1.965-2.6042-1.449-4.0216-2.556-5.3392-5.55-0.1718-0.172-0.3311-0.343-0.4796-0.514-0.5654 0.072-0.9805-0.361-1.3271-1.068 0-1.016-2.4068 0.156-2.4068-1.417 0-0.486 0.8205 0.052 0.8205-0.461 0.4376-0.916 0.8752-1.683 1.4769-2.29 1.5863-1.959 2.6802-2.71 3.0631-2.271 0.2631-1.438 0.3409-2.117 0.2607-0.621-0.0085 0.159-0.5111 0.098-0.5231 0.256-3.001 3.921-6.5953 7.31-10.606 9.722-0.2179 0.408-0.4498 2.327-0.6942 2.691-0.3464 0.516 1.3057 0.985 0.9125 1.397 0.9199 1.235-0.1632 2.317-1.6039 5.529-0.1265 0.138-0.2522 0.276-0.377 0.415-2.4608-0.182-4.3972 6.764-5.0903 3.648-0.0414 0.023-0.1015 0.052-0.1787 0.084-0.3468 0.099-0.9441 0.474-1.6403-0.017-0.1345 0.155-0.2667 0.106-0.3987-0.094-1.484 0.539-3.1297-0.883-5.1599-3.038-1.8388-1.581-3.2956-3.745-4.12-5.846-0.2499-1.151-0.4595-2.119-0.6395-2.678-0.2967-1.524-1.1996-4.105-1.7037-6.621-0.2269-0.458-0.403-1.341-0.437-2.378-0.2188-1.462 0.8205-0.932 0-1.503-1.2034-2.531-3.1178-5.187-6.8921-5.111 0-0.749-1.4221-0.344-1.4221-0.938 0-0.571 0.6017 0.04 0.6017-0.32 0-0.457 0.2289-0.884 0.5128-1.09 0.1229-0.089-0.2362-0.404-0.1069-0.497 0.0612-0.138 0.0925-0.258-0.2062-0.144 0.5005-0.592-0.0456-0.526-0.5445-0.242-0.0798 0.171-0.217 0.814-0.7398 1.546-0.3109 0.348-0.6774 0.854-1.0449 1.189-0.51 0.085-1.0427 0.686-1.5894 1.584-0.0154 0.39-0.0334 2.379-0.0533 2.882-0.0217 0.551 1.9783 1.155 1.9534 1.786 2.1227 1.651 2.2694 3.862 2.2107 8.96-0.0683 1.729-0.1184 4.563-0.1184 6.4 0 0.946 0.1094 1.968 0.1641 2.929 0.2324 3.464 0.6817 6.697 1.2988 7.704 1.1613 5.725 3.2452 8.725 6.2533 10.5 0.7499 0.508 1.5697 0.92 2.4585 1.231 2.874 0.911 6.1179 0.903 9.9201-0.098 2.0656-0.538 4.0529-1.435 5.9204-2.681 1.5692-0.978 3.0092-2.207 4.2568-3.642 0.7973-1.158 5.2012-5.854 5.8363-7.223 0.4842 0.284 0.8697 0.032 1.1043 0.692 0.0792 0.027 0.1487 0.079 0.2081 0.17 1.8641-1.38 3.5659-2.806 5.203-4.116 1.6519-1.493 3.0938-2.852 4.4174-3.834z"/>
   <path d="m33.476-87.983c-0.071-0.412-0.1675-2.718-0.2864-3.086-0.1806-0.559-3.0296-1.255-3.3037-1.692-2.7564-1.242-4.0183-2.265-5.1233-5.757-0.1437-0.2-0.2766-0.403-0.4003-0.609-0.4711 0.06-0.8171-0.515-1.1059-1.455 0-1.186-2.0057-0.675-2.0057-2.511 0-0.566 0.6838-0.286 0.6838-0.884 0.3646-0.96 0.7293-1.799 1.2307-2.508 1.3219-2.285 2.2336-3.58 2.5526-3.798 0.2193-2.18 0.2841-3.483 0.2173-2.236-0.0071 0.132-0.59 9e-3 -0.6001 0.14-3.4307 3.65-7.3741 6.73-11.682 8.849-0.1816 0.341-0.3748 2.451-0.5784 2.754-0.2888 0.43 1.7626 0.82 1.435 1.164 1.4659 1.028 0.6591 2.048-0.5348 5.795-0.1051 0.161-0.2097 0.324-0.3137 0.489-2.0507-0.152-3.6644 8.609-4.2419 6.012-0.0345 0.089-0.0923 0.186-0.1716 0.288-0.3499 0.389-1.0285 1.046-1.8772 0.946-0.1569 0.182-0.3144 0.192-0.4739 0.074-1.7473 0.96-3.7022 0.031-6.105-1.766-2.1705-1.317-3.8951-3.321-4.8738-5.418-0.3046-1.069-0.5575-2.025-0.7674-2.677-0.3462-1.577-1.148-4.135-1.5682-6.731-0.189-0.382-0.3358-1.283-0.3641-2.419-0.1823-1.359 0.6837-1.087 0-1.754-1.0028-2.952-2.5982-6.416-5.7434-7.312 0-0.873-1.1851-0.766-1.1851-1.458 0-0.667 0.5014-0.318 0.5014-0.739 0-0.532 0.1907-0.975 0.4273-1.147 0.1024-0.074-0.3609-0.41-0.2531-0.488-0.0482-0.073-0.1215-0.134-0.4699-1e-3 0.0734-0.363-0.7279-0.194-1.4923 0.137-0.2754 0.199-0.5996 0.785-1.2459 1.438-0.381 0.316-0.8086 0.761-1.2373 1.06-0.5951 0.1-1.2096 0.624-1.8363 1.391-0.0128 0.326-0.0279 2.494-0.0444 2.913-0.0181 0.459 2.3231 0.963 2.3024 1.488 2.4983 1.377 2.6934 3.346 2.6445 8.798-0.0569 1.441-0.0987 4.324-0.0987 6.467 0 0.958 0.0912 1.986 0.1368 2.961 0.1937 3.609 0.5681 6.99 1.0823 7.83 0.9678 6.047 2.8138 9.112 5.6487 11.047 0.7273 0.563 1.5317 1.027 2.4136 1.391 2.8074 1.062 6.0926 1.208 10.035 0.373 2.1449-0.448 4.2004-1.264 6.1116-2.431 1.6402-0.935 3.1337-2.133 4.4114-3.549 0.6645-0.965 5.556-6.009 6.0852-7.149 0.4036 0.678 0.7121 0.745 0.8713 1.875 0.059 0.136 0.109 0.304 0.1495 0.52 2.0639-1.186 3.9744-2.393 5.8492-3.484 1.8871-1.245 3.581-2.359 5.1945-3.141z"/>
   <path d="m-21.003-84.567c-0.0568-0.329-0.134-2.831-0.2291-3.125-0.1445-0.447-3.3208-1.07-3.5401-1.419-2.9086-1.035-4.0151-1.973-4.9075-5.964-0.1154-0.229-0.2219-0.464-0.3209-0.704-0.3769 0.048-0.6537-0.669-0.8847-1.843 0-1.355-1.6045-1.506-1.6045-3.604 0-0.647 0.547-0.623 0.547-1.307 0.2917-1.003 0.5834-1.916 0.9845-2.725 1.0575-2.612 1.7869-4.452 2.0421-5.325 0.1754-2.923 0.2273-4.849 0.1738-3.852-0.0057 0.106-0.6689-0.081-0.6769 0.025-3.8605 3.379-8.1529 6.149-12.759 7.976-0.1452 0.272-0.2998 2.573-0.4627 2.815-0.231 0.344 2.2196 0.656 1.9575 0.931 2.0119 0.823 1.4815 1.78 0.5345 6.062-0.0838 0.184-0.1674 0.371-0.2505 0.563-1.6406-0.122-2.9316 10.454-3.3936 8.376-0.0276 0.155-0.0831 0.32-0.1645 0.492-0.3529 0.679-1.1129 1.618-2.1141 1.91-0.1793 0.207-0.362 0.276-0.5491 0.242-2.0104 1.38-4.2745 0.943-7.0501-0.494-2.5022-1.053-4.4944-2.898-5.6275-4.991-0.3593-0.987-0.6554-1.931-0.8954-2.676-0.3956-1.63-1.0964-4.166-1.4325-6.842-0.1512-0.305-0.2687-1.224-0.2913-2.459-0.1459-1.256 0.547-1.242 0-2.004-0.8023-3.374-2.0786-7.646-4.5947-9.513 0-0.998-0.9481-1.188-0.9481-1.98 0-0.761 0.4011-0.675 0.4011-1.156 0-0.609 0.1526-1.068 0.3419-1.205 0.0819-0.059-0.4857-0.415-0.3995-0.478-0.1575-0.01-0.3353-0.011-0.7336 0.141-0.3537-0.134-1.4101 0.137-2.4399 0.517-0.4711 0.227-0.9822 0.756-1.7522 1.33-0.451 0.283-0.9397 0.666-1.4296 0.93-0.68011 0.114-1.3764 0.562-2.0832 1.199-0.01027 0.261-0.02231 2.608-0.03555 2.943-0.01449 0.367 2.6681 0.77 2.6515 1.191 2.8738 1.101 3.1175 2.83 3.0783 8.635-0.0455 1.153-0.0789 4.084-0.0789 6.534 0 0.97 0.0729 2.004 0.1094 2.993 0.155 3.755 0.4545 7.283 0.8659 7.955 0.7742 6.369 2.3822 9.5 5.0441 11.595 0.7046 0.617 1.4937 1.135 2.3687 1.551 2.7406 1.214 6.0671 1.512 10.15 0.844 2.2244-0.358 4.348-1.092 6.303-2.18 1.7111-0.893 3.2581-2.059 4.566-3.457 0.5316-0.772 5.9107-6.163 6.3341-7.076 0.3228 1.074 0.5543 1.459 0.6383 3.059 0.0387 0.245 0.0691 0.53 0.0908 0.871 2.2638-0.994 4.3829-1.981 6.4953-2.854 2.1224-0.995 4.0682-1.865 5.9717-2.447z"/>
   <path d="m-77.232-81.15c-0.0426-0.247-0.1004-2.944-0.1718-3.165-0.1084-0.335-3.6119-0.884-3.7763-1.146-3.061-0.828-4.0119-1.681-4.6918-6.171-0.0871-0.258-0.1673-0.524-0.2415-0.8-0.2827 0.037-0.4903-0.822-0.6635-2.23 0-1.524-1.2034-2.336-1.2034-4.697 0-0.728 0.4102-0.961 0.4102-1.73 0.2188-1.046 0.4376-2.032 0.7385-2.943 0.7931-2.938 1.3401-5.322 1.5315-6.852 0.1316-3.665 0.1705-6.215 0.1304-5.467-0.0043 0.079-0.7479-0.17-0.7539-0.091-4.2901 3.109-8.9316 5.569-13.836 7.103-0.109 0.205-0.2249 2.696-0.3471 2.878-0.1732 0.258 2.6767 0.492 2.4801 0.698 2.5579 0.617 2.3038 1.511 1.6036 6.328-0.0624 0.207-0.1249 0.419-0.1873 0.637-1.2304-0.091-2.1986 12.298-2.5451 10.74-0.0207 0.221-0.0739 0.454-0.1574 0.696-0.356 0.969-1.1973 2.189-2.351 2.874-0.2017 0.233-0.4097 0.361-0.6244 0.41-2.2736 1.801-4.8468 1.855-7.9951 0.778-2.8339-0.79-5.0939-2.474-6.3812-4.564-0.41409-0.906-0.75344-1.837-1.0234-2.675-0.44503-1.683-1.0448-4.196-1.2969-6.952-0.11342-0.229-0.2015-1.165-0.21847-2.499-0.1094-1.154 0.41024-1.398 0-2.256-0.60169-3.795-1.5589-8.874-3.446-11.714 0-1.123-0.71109-1.61-0.71109-2.5 0-0.857 0.30084-1.034 0.30084-1.575 0-0.684 0.11446-1.159 0.25642-1.262 0.0614-0.045-0.61041-0.421-0.54572-0.468-0.26689 0.054-0.5493 0.112-0.99735 0.282-0.78077 0.097-2.0923 0.47-3.3876 0.897-0.66675 0.255-1.3648 0.727-2.2584 1.223-0.52109 0.25-1.0709 0.571-1.622 0.8-0.76514 0.128-1.5433 0.5-2.3301 1.007-8e-3 0.195-0.0168 2.722-0.0267 2.973-0.0109 0.275 3.013 0.578 3.0005 0.893 3.2494 0.826 3.5415 2.314 3.5121 8.473-0.0341 0.865-0.0592 3.845-0.0592 6.601 0 0.981 0.0547 2.022 0.082 3.025 0.11624 3.901 0.34087 7.576 0.64941 8.08 0.58066 6.691 1.9508 9.887 4.4395 12.142 0.68197 0.673 1.4558 1.244 2.3239 1.712 2.674 1.365 6.0417 1.817 10.265 1.316 2.3038-0.269 4.4955-0.922 6.4942-1.931 1.782-0.85 3.3826-1.985 4.7207-3.364 0.3987-0.579 6.2654-6.318 6.583-7.002 0.2421 1.468 0.3966 2.172 0.4053 4.242 0.0184 0.353 0.0292 0.755 0.0321 1.221 2.4636-0.8 4.7914-1.567 7.1415-2.222 2.3575-0.747 4.5554-1.372 6.7487-1.753z"/>
   <path d="m-135.21-77.734c-0.0284-0.165-0.067-3.057-0.1145-3.204-0.0723-0.223-3.9031-0.699-4.0127-0.873-3.2132-0.621-4.0086-1.389-4.4759-6.378-0.059-0.287-0.1127-0.585-0.1622-0.895-0.1884 0.024-0.3268-0.977-0.4424-2.617 0-1.694-0.8022-3.168-0.8022-5.791 0-0.808 0.2735-1.298 0.2735-2.153 0.1458-1.09 0.2917-2.149 0.4923-3.16 0.5287-3.265 0.8934-6.194 1.021-8.38 0.0877-4.407 0.1136-7.581 0.0869-7.082-3e-3 0.052-0.8267-0.26-0.8307-0.207-4.7199 2.839-9.7105 4.99-14.913 6.231-0.0726 0.136-0.14991 2.818-0.23138 2.939-0.11549 0.172 3.1337 0.328 3.0026 0.466 3.104 0.411 3.1262 1.242 2.6728 6.594-0.041 0.23-0.0824 0.467-0.124 0.711-0.8203-0.061-1.4658 14.143-1.6968 13.104-0.0138 0.287-0.0647 0.588-0.15023 0.9-0.35909 1.26-1.2817 2.761-2.5879 3.838-0.22415 0.258-0.45732 0.446-0.69958 0.577-2.5368 2.222-5.4192 2.769-8.9402 2.05-3.1656-0.526-5.6933-2.05-7.135-4.136-0.4688-0.824-0.8514-1.744-1.1514-2.674-0.4945-1.736-0.9932-4.226-1.1613-7.063-0.0756-0.152-0.1343-1.106-0.1456-2.539-0.073-1.051 0.2735-1.554 0-2.506-0.4011-4.217-1.0393-10.104-2.2974-13.915 0-1.248-0.474-2.032-0.474-3.022 0-0.952 0.2005-1.391 0.2005-1.992 0-0.761 0.0763-1.252 0.171-1.32 0.0409-0.03-0.7352-0.427-0.692-0.458-0.3763 0.118-0.7633 0.235-1.2611 0.424-1.2079 0.326-2.7745 0.802-4.3353 1.276-0.8624 0.284-1.7474 0.699-2.7646 1.116-0.5911 0.217-1.202 0.477-1.8143 0.67-0.8502 0.142-1.7101 0.438-2.5771 0.815-5e-3 0.13-0.0111 2.835-0.0177 3.003-7e-3 0.184 3.3579 0.385 3.3496 0.595 3.6248 0.551 3.9654 1.798 3.9459 8.311-0.0228 0.577-0.0395 3.606-0.0395 6.668 0 0.993 0.0365 2.04 0.0547 3.057 0.0775 4.047 0.2273 7.87 0.4329 8.205 0.3872 7.014 1.5194 10.275 3.8349 12.69 0.6593 0.727 1.4178 1.352 2.279 1.871 2.6073 1.518 6.0163 2.122 10.38 1.788 2.3832-0.179 4.643-0.75 6.6854-1.68 1.853-0.808 3.5071-1.912 4.8754-3.272 0.26578-0.386 6.6202-6.473 6.8319-6.929 0.1614 1.864 0.2388 2.885 0.1723 5.426-2e-3 0.462-0.0106 0.98-0.0266 1.571 2.6634-0.606 5.1999-1.154 7.7877-1.591 2.5927-0.498 5.0425-0.877 7.5258-1.059z"/>
   <path d="m-194.94-74.318c-0.0142-0.082-0.0335-3.169-0.0573-3.243-0.0361-0.111-4.1942-0.513-4.249-0.6-3.3654-0.415-4.0054-1.098-4.2601-6.586-0.0307-0.314-0.058-0.644-0.0828-0.989-0.0942 0.012-0.16342-1.131-0.22118-3.005 0-1.863-0.40113-3.998-0.40113-6.883 0-0.89 0.13675-1.637 0.13675-2.577 0.0729-1.133 0.14587-2.265 0.24615-3.378 0.26438-3.592 0.44671-7.064 0.51052-9.907 0.0438-5.149 0.0568-8.947 0.0434-8.698-1e-3 0.027-0.90567-0.348-0.90767-0.322-5.1496 2.568-10.489 4.41-15.989 5.358-0.0363 0.068-0.0749 2.941-0.1157 3.002-0.0577 0.086 3.5907 0.164 3.5252 0.232 3.6499 0.206 3.9485 0.973 3.7419 6.861-0.0197 0.253-0.04 0.514-0.0608 0.785-0.41014-0.03-0.73288 15.987-0.84838 15.468-7e-3 0.353-0.0555 0.722-0.1431 1.104-0.36218 1.55-1.3661 3.332-2.8248 4.801-0.24658 0.285-0.50494 0.531-0.77484 0.746-2.7999 2.642-5.9915 3.681-9.8853 3.322-3.4972-0.263-6.2927-1.627-7.8887-3.709-0.5235-0.743-0.9494-1.65-1.2793-2.674-0.544-1.788-0.9417-4.256-1.0257-7.172-0.0378-0.076-0.0672-1.048-0.0728-2.58-0.0365-0.948 0.1367-1.709 0-2.756-0.2006-4.639-0.5197-11.333-1.1487-16.117 0-1.372-0.237-2.454-0.237-3.542 0-1.047 0.1002-1.749 0.1002-2.411 0-0.836 0.0382-1.343 0.0855-1.378 0.0205-0.014-0.8598-0.432-0.8383-0.447-0.4856 0.181-0.9771 0.358-1.5247 0.566-1.635 0.556-3.4568 1.133-5.2831 1.655-1.058 0.312-2.13 0.67-3.2707 1.009-0.6612 0.184-1.3332 0.382-2.0068 0.54-0.9351 0.157-1.8769 0.377-2.8239 0.623-3e-3 0.065-6e-3 2.949-9e-3 3.033-4e-3 0.092 3.7028 0.193 3.6987 0.298 4.0004 0.275 4.3895 1.282 4.3797 8.148-0.0114 0.288-0.0197 3.366-0.0197 6.734 0 1.006 0.0182 2.059 0.0273 3.09 0.0388 4.192 0.1136 8.163 0.2165 8.331 0.1935 7.335 1.0878 10.662 3.2302 13.237 0.6366 0.782 1.3799 1.459 2.2341 2.031 2.5406 1.669 5.9909 2.427 10.495 2.26 2.4625-0.09 4.7906-0.58 6.8766-1.43 1.924-0.766 3.6317-1.838 5.03-3.18 0.1329-0.193 6.975-6.627 7.0808-6.856 0.0807 2.259 0.0812 3.599-0.0606 6.61-0.0222 0.571-0.0504 1.205-0.0853 1.921 2.8633-0.412 5.6084-0.741 8.4339-0.959 2.8279-0.249 5.5297-0.384 8.3029-0.366z"/>
   <path d="m-256.42-43.772v-3.281l-4.4853-0.329c-3.5177-0.207-4.0021-0.805-4.0443-6.792-2e-3 -0.343-3e-3 -0.704-3e-3 -1.084v-3.393-7.976-3-3.596-11.433-10.314l-0.9846-0.437c-5.5793 2.297-11.268 3.829-17.066 4.485v3.063h4.0478c4.1959 0 4.7708 0.704 4.811 7.127 2e-3 0.276 2e-3 0.562 2e-3 0.859v17.832c0 0.418-0.0463 0.857-0.136 1.308-0.3652 1.84-1.4505 3.904-3.0617 5.765-0.269 0.311-0.5526 0.616-0.85 0.913-3.0632 3.063-6.5639 4.595-10.83 4.595-3.829 0-6.8921-1.204-8.6425-3.282-0.5782-0.661-1.0473-1.556-1.4073-2.673-0.5934-1.841-0.89-4.286-0.89-7.282v-2.621-3.007-18.317-4.064-2.828-1.436l-0.9846-0.437c-0.5949 0.245-1.1911 0.481-1.7885 0.708-2.0621 0.785-4.139 1.465-6.2307 2.034-1.2537 0.341-2.5126 0.642-3.7769 0.902-0.7313 0.151-1.4643 0.287-2.1992 0.41-1.0202 0.171-2.0438 0.315-3.0708 0.431v3.063h4.0477c4.3759 0 4.8135 0.766 4.8135 7.986v6.801 3.123 8.455c0 7.658 0.6564 11.049 2.6256 13.784 0.614 0.837 1.342 1.568 2.1893 2.192 2.4739 1.821 5.9654 2.731 10.61 2.731 2.542 0 4.9382-0.408 7.068-1.18 1.9948-0.722 3.7561-1.764 5.1846-3.086l7.3297-6.783c0 2.653-0.0765 4.312-0.2936 7.792-0.0425 0.681-0.0903 1.431-0.144 2.272 3.0631-0.218 6.0169-0.328 9.08-0.328 3.0632 0 6.0169 0.11 9.0801 0.328z"/>
   <g transform="rotate(178.92)" aria-label="υ">
    <path d="m-48.262-140.76c-1.2868-7.4636-5.5333-12.611-10.552-12.611-1.9302 0-3.217 0.51472-4.2465 1.5442l-10.586 10.698-0.75868 5.8402c1.0295-0.77209 9.6718-9.2031 11.087-9.2031 3.7318 0 6.3054 2.9597 7.2062 8.107 3.3457 19.174-6.0481 40.02-18.015 40.02-6.5628 0-11.71-5.276-13.126-13.769-0.38605-1.9302-0.51473-3.4744-0.25736-6.8202l1.2868-26.895c0-2.0589 0-3.8605-0.25736-5.5333-0.51473-2.445-1.8015-3.9891-3.7318-3.9891-2.831 0-7.0235 2.991-16.214 9.5225l-9.4197 6.6944 1.3293 3.5799 9.8919-7.8293c3.6031-2.3163 4.7612-2.9597 6.0481-2.9597s2.445 1.1581 2.7023 2.5736c0.12868 0.64341 0.12868 1.6729 0.12868 2.3163l-1.1581 29.34c0 1.0295 0.25736 2.1876 0.38605 3.217 1.8015 10.037 9.1364 16.986 17.887 16.986 5.9194 0 11.067-2.5736 16.471-8.3643 4.8899-5.276 9.3938-13.383 11.967-21.49 2.1876-6.8202 2.9597-15.571 1.9302-20.975z" stroke-width=".67021"/>
   </g>
  </g>
  <g fill="#000000" font-family="'TeX Gyre Pagella Math'" font-size="128.68px" letter-spacing="0px" stroke-width=".67021" word-spacing="0px">
   <text x="182.16061" y="71.211014" style="line-height:1.25" xml:space="preserve"><tspan x="182.16061" y="71.211014" dy="0" font-family="'TeX Gyre Pagella Math'" font-size="128.68px" stroke-width=".67021">υ</tspan></text>
   <text transform="rotate(178.92)" x="-237.29289" y="11.211923" style="line-height:1.25" xml:space="preserve"><tspan x="-237.29289" y="11.211923" dy="0" font-family="'TeX Gyre Pagella Math'" font-size="128.68px" stroke-width=".67021">υ</tspan></text>
   <text x="647.53198" y="-164.19138" style="line-height:1.25" xml:space="preserve"><tspan x="647.53198" y="-164.19138" dy="0" font-family="'TeX Gyre Pagella Math'" font-size="128.68px" stroke-width=".67021">υ</tspan></text>
  </g>
 </g>
 <g>
  <g display="none">
   <rect transform="rotate(-46.681)" x="-15.914" y="70.587" width="34.812" height="3.7544" fill="#7d004f" style="paint-order:fill markers stroke"/>
   <g transform="rotate(178.92 -18.552 -40.624)" clip-path="url(#clipPath2271)" display="inline" aria-label="υ">
    <path d="m-48.262-140.76c-1.2868-7.4636-5.5333-12.611-10.552-12.611-1.9302 0-3.217 0.51472-4.2465 1.5442l-8.5571 8.6171-0.18365 5.6603c1.0295-0.77209 7.0679-6.9425 8.4834-6.9425 3.7318 0 6.3054 2.9597 7.2062 8.107 3.3457 19.174-6.0481 40.02-18.015 40.02-6.5628 0-11.71-5.276-13.126-13.769-0.38605-1.9302-0.51473-3.4744-0.25736-6.8202l1.2868-26.895c0-2.0589 0-3.8605-0.25736-5.5333-0.51473-2.445-1.8015-3.9891-3.7318-3.9891-2.831 0-7.0235 2.991-16.214 9.5225l-6.2176 4.4129 0.13798 4.285 7.8812-6.253c3.6031-2.3163 4.7612-2.9597 6.0481-2.9597s2.445 1.1581 2.7023 2.5736c0.12868 0.64341 0.12868 1.6729 0.12868 2.3163l-1.1581 29.34c0 1.0295 0.25736 2.1876 0.38605 3.217 1.8015 10.037 9.1364 16.986 17.887 16.986 5.9194 0 11.067-2.5736 16.471-8.3643 4.8899-5.276 9.3938-13.383 11.967-21.49 2.1876-6.8202 2.9597-15.571 1.9302-20.975z" stroke-width=".67021"/>
   </g>
  </g>
  <g>
   <g clip-path="url(#clipPath2340)" fill="#010101" aria-label="υ">
    <path d="m70.679 32.047c-1.9302 0-3.2171 0.51473-4.2465 1.5442l-5.662 6.0481-1.2397 6.6625c1.0295-0.77209 7.16-5.7111 8.5755-5.7111 3.7318 0 7.7217 3.2097 8.6224 8.357 3.3457 19.174-7.9375 38.365-21.363 40.106-6.5083 0.84398-11.71-5.276-13.126-13.769-0.38605-1.9302-0.51473-3.4744-0.25736-6.8201l1.2868-26.895c0-2.0589 0-3.8605-0.25736-5.5333-0.51473-2.445-1.8015-3.9891-3.7318-3.9891-2.831 0-7.3349 2.5736-16.214 9.5225l-3.3457 2.5736 1.4155 2.5736 3.7318-2.7023c3.6031-2.3163 4.7612-2.9597 6.0481-2.9597 1.2868 0 2.445 1.1581 2.7023 2.5736 0.12868 0.64341 0.12868 1.6729 0.12868 2.3163l-1.1581 29.339c0 1.0295 0.25736 2.1876 0.38605 3.217 1.8015 10.037 9.1364 16.986 17.887 16.986 25.954 0.73358 46.126-62.423 19.817-63.44z" fill="#010101" stroke-width=".67021"/>
   </g>
   <text transform="rotate(178.92)" x="-77.452072" y="-4.4434071" fill="#ff1ad9" font-family="'TeX Gyre Pagella Math'" font-size="128.68px" letter-spacing="0px" stroke-width=".67021" word-spacing="0px" style="line-height:1.25" xml:space="preserve"><tspan x="-77.452072" y="-4.4434071" dy="0" fill="#ff1ad9" font-family="'TeX Gyre Pagella Math'" font-size="128.68px" stroke-width=".67021">υ</tspan></text>
   <g dominant-baseline="auto" fill="#010101" stop-color="#000000" style="font-feature-settings:normal;font-variant-alternates:normal;font-variant-caps:normal;font-variant-east-asian:normal;font-variant-ligatures:normal;font-variant-numeric:normal;font-variant-position:normal;font-variation-settings:normal;inline-size:0;shape-margin:0;shape-padding:0;text-decoration-color:#000000;text-decoration-line:none;text-decoration-style:solid;text-indent:0;text-orientation:mixed;text-transform:none;white-space:normal" aria-label="υ">
    <path d="m82.069 43.356c-1.2868-7.4636-5.5333-12.611-10.552-12.611-1.9302 0-3.217 0.51473-4.2465 1.5442l-5.662 6.0481 1.9302 2.445c1.0295-0.77209 2.0589-1.1581 3.4744-1.1581 3.7318 0 6.3054 2.9597 7.2062 8.107 3.3457 19.174-6.0481 40.02-18.015 40.02-6.5628 0-11.71-5.276-13.126-13.769-0.38605-1.9302-0.51473-3.4744-0.25736-6.8201l1.2868-26.895c0-2.0589 0-3.8605-0.25736-5.5333-0.51473-2.445-1.8015-3.9891-3.7318-3.9891-2.831 0-7.3349 2.5736-16.214 9.5225l-3.3457 2.5736 1.4304-0.09404 0.02669 1.1928 3.6049-2.1719c3.6031-2.3163 4.8466-2.0152 6.1334-2.0152s2.445 1.1581 2.7023 2.5736c0.12868 0.64341 0.12868 1.6729 0.12868 2.3163l-1.1581 29.339c0 1.0295 0.25736 2.1876 0.38605 3.217 1.8015 10.037 9.1364 16.986 17.887 16.986 5.9194 0 11.067-2.5736 16.471-8.3643 4.8899-5.276 9.3938-13.383 11.967-21.49 2.1876-6.8201 2.9597-15.571 1.9302-20.975z" dominant-baseline="auto" fill="#010101" stop-color="#000000" style="font-feature-settings:normal;font-variant-alternates:normal;font-variant-caps:normal;font-variant-east-asian:normal;font-variant-ligatures:normal;font-variant-numeric:normal;font-variant-position:normal;font-variation-settings:normal;inline-size:0;shape-margin:0;shape-padding:0;text-decoration-color:#000000;text-decoration-line:none;text-decoration-style:solid;text-indent:0;text-orientation:mixed;text-transform:none;white-space:normal"/>
   </g>
   <g>
    <g transform="rotate(178.92 -19.661 -41.145)" fill="#ff1ad9" aria-label="υ">
     <path d="m-48.262-140.76c-1.2868-7.4636-5.5333-12.611-10.552-12.611-1.9302 0-3.217 0.51472-4.2465 1.5442l-8.5571 8.6171-0.18365 5.6603c1.0295-0.77209 7.0679-6.9425 8.4834-6.9425 3.7318 0 6.3054 2.9597 7.2062 8.107 3.3457 19.174-6.0481 40.02-18.015 40.02-6.5628 0-11.71-5.276-13.126-13.769-0.38605-1.9302-0.51473-3.4744-0.25736-6.8202l1.2868-26.895c0-2.0589 0-3.8605-0.25736-5.5333-0.51473-2.445-1.8015-3.9891-3.7318-3.9891-2.831 0-7.0235 2.991-16.214 9.5225l-6.2176 4.4129 0.13798 4.285 7.8812-6.253c3.6031-2.3163 4.7612-2.9597 6.0481-2.9597s2.445 1.1581 2.7023 2.5736c0.12868 0.64341 0.12868 1.6729 0.12868 2.3163l-1.1581 29.34c0 1.0295 0.25736 2.1876 0.38605 3.217 1.8015 10.037 9.1364 16.986 17.887 16.986 5.9194 0 11.067-2.5736 16.471-8.3643 4.8899-5.276 9.3938-13.383 11.967-21.49 2.1876-6.8202 2.9597-15.571 1.9302-20.975z" fill="#ff1ad9" stroke-width=".67021"/>
    </g>
    <g transform="rotate(178.92 -18.504 -42.514)" aria-label="υ">
     <path d="m-48.262-140.76c-1.2868-7.4636-5.5333-12.611-10.552-12.611-1.9302 0-3.217 0.51472-4.2465 1.5442l-8.5571 8.6171-0.18365 5.6603c1.0295-0.77209 7.0679-6.9425 8.4834-6.9425 3.7318 0 6.3054 2.9597 7.2062 8.107 3.3457 19.174-6.0481 40.02-18.015 40.02-6.5628 0-11.71-5.276-13.126-13.769-0.38605-1.9302-0.51473-3.4744-0.25736-6.8202l1.2868-26.895c0-2.0589 0-3.8605-0.25736-5.5333-0.51473-2.445-1.8015-3.9891-3.7318-3.9891-2.831 0-7.0235 2.991-16.214 9.5225l-6.2176 4.4129 0.13798 4.285 7.8812-6.253c3.6031-2.3163 4.7612-2.9597 6.0481-2.9597s2.445 1.1581 2.7023 2.5736c0.12868 0.64341 0.12868 1.6729 0.12868 2.3163l-1.1581 29.34c0 1.0295 0.25736 2.1876 0.38605 3.217 1.8015 10.037 9.1364 16.986 17.887 16.986 5.9194 0 11.067-2.5736 16.471-8.3643 4.8899-5.276 9.3938-13.383 11.967-21.49 2.1876-6.8202 2.9597-15.571 1.9302-20.975z" stroke-width=".67021"/>
    </g>
    <g transform="translate(-37.159 -86.528)" fill="#00c8d7" aria-label="υ">
     <path d="m121.71 126.71c-1.2868-7.4636-5.5333-12.611-10.552-12.611-1.9302 0-3.217 0.51473-4.2465 1.5442l-8.8976 8.9582-0.06447 5.5127c1.0294-0.7721 7.2892-7.136 8.7047-7.136 3.7318 0 6.3054 2.9597 7.2062 8.107 3.3457 19.174-6.048 40.02-18.015 40.02-6.5628 0-11.71-5.276-13.126-13.769-0.38605-1.9302-0.51473-3.4744-0.25736-6.8201l1.2868-26.895c0-2.0589 0-3.8605-0.25736-5.5333-0.51473-2.445-1.8015-3.9891-3.7318-3.9891-2.831 0-7.5851 2.2652-16.214 9.5225l-6.3828 5.4134c0.04349 1.4108 0.02446 2.9317 0.26936 3.9878l7.915-6.9562c3.2174-2.8277 4.7612-2.9597 6.0481-2.9597s2.445 1.1581 2.7023 2.5736c0.12868 0.64341 0.12868 1.6729 0.12868 2.3163l-1.1581 29.339c0 1.0295 0.25736 2.1876 0.38605 3.217 1.8015 10.037 9.1364 16.986 17.887 16.986 5.9194 0 11.067-2.5736 16.471-8.3643 4.8899-5.276 9.3938-13.383 11.967-21.49 2.1876-6.8201 2.9597-15.571 1.9302-20.975z" fill="#00c8d7" stroke-width=".67021"/>
    </g>
   </g>
  </g>
 </g>
 <g display="none" fill="none" stroke="#f00" stroke-width=".26458px">
  <path d="m29.231 63.848c49.973-51.33 49.748-51.33 49.748-51.33"/>
  <path d="m25.134 63.305c49.973-51.33 49.748-51.33 49.748-51.33"/>
  <path d="m27.062 78.158c49.973-51.33 49.748-51.33 49.748-51.33"/>
  <path d="m22.965 77.614c49.973-51.33 49.748-51.33 49.748-51.33"/>
 </g>
</svg>
